<?xml version="1.0" standalone="no"?>
<!DOCTYPE svg PUBLIC "-//W3C//DTD SVG 20010904//EN"
 "http://www.w3.org/TR/2001/REC-SVG-20010904/DTD/svg10.dtd">
<svg version="1.0" xmlns="http://www.w3.org/2000/svg"
 width="1366.000000pt" height="820.000000pt" viewBox="0 0 1366.000000 820.000000"
 preserveAspectRatio="xMidYMid meet">

<g transform="translate(0.000000,820.000000) scale(0.100000,-0.100000)"
fill="#000000" stroke="none">
<path d="M0 5258 c0 -3171 -3 -3006 50 -3198 12 -41 45 -125 75 -186 141 -290
388 -506 695 -608 217 -72 -340 -66 6011 -66 5565 0 5729 -1 5830 -19 257 -46
457 -150 640 -331 182 -180 306 -417 343 -658 12 -74 14 514 15 3961 l1 4047
-6830 0 -6830 0 0 -2942z"/>
</g>
</svg>
