<svg xmlns="http://www.w3.org/2000/svg" xmlns:xlink="http://www.w3.org/1999/xlink" width="94" height="182" viewBox="0 0 94 182">
  <defs>
    <clipPath id="clip-path">
      <rect id="Rectangle_32" data-name="Rectangle 32" width="94" height="182" transform="translate(1272 15)" fill="#fff" stroke="#707070" stroke-width="1"/>
    </clipPath>
  </defs>
  <g id="Mask_Group_5" data-name="Mask Group 5" transform="translate(-1272 -15)" clip-path="url(#clip-path)">
    <g id="Rectangle_25" data-name="Rectangle 25" transform="translate(1272 -126)" fill="none" stroke="#638cb4" stroke-width="3">
      <path d="M0,0H139a0,0,0,0,1,0,0V323a0,0,0,0,1,0,0h0A139,139,0,0,1,0,184V0A0,0,0,0,1,0,0Z" stroke="none"/>
      <path d="M1.5,1.5h136a0,0,0,0,1,0,0v320a0,0,0,0,1,0,0h0a136,136,0,0,1-136-136V1.5A0,0,0,0,1,1.5,1.5Z" fill="none"/>
    </g>
  </g>
</svg>
