<svg xmlns="http://www.w3.org/2000/svg" xmlns:xlink="http://www.w3.org/1999/xlink" width="251.952" height="125.658" viewBox="0 0 251.952 125.658">
  <defs>
    <clipPath id="clip-path">
      <rect id="Rectangle_19" data-name="Rectangle 19" width="251.952" height="125.658" fill="none"/>
    </clipPath>
  </defs>
  <g id="Group_10" data-name="Group 10" clip-path="url(#clip-path)">
    <path id="Path_61" data-name="Path 61" d="M106.769,46.36V35.841c0-3.833,2.582-5.843,5.959-5.843l18.855-.017V25.147H112.728c-3.377,0-5.959-2.009-5.959-5.842V10.965c0-6.876.677-7.639,4.075-8.575l2.459-.677V.014H86.058v1.7l2.463.677c3.395.936,4.071,1.7,4.071,8.575v35.4c0,6.876-.677,7.639-4.071,8.572l-2.463.68v1.7H113.3v-1.7l-2.459-.68c-3.4-.933-4.075-1.7-4.075-8.572" transform="translate(3.14 0.001)" fill="#4a7aa6"/>
    <path id="Path_62" data-name="Path 62" d="M160.356,21.48c-.849,2.972-2.038,3-9.849,3H148.6V29.31h1.91c7.811,0,8.915-.1,9.764,2.867l1.019,3.566h1.7v-17.4h-1.7Z" transform="translate(5.422 0.669)" fill="#ffdd63"/>
    <path id="Path_63" data-name="Path 63" d="M123.492,0V1.7l2.463.68c3.4.935,4.074,1.7,4.074,8.576v35.4c0,6.876-.679,7.641-4.074,8.574l-2.463.679v1.7h28.951v-1.7l-4.16-.763c-3.481-.68-4.075-1.614-4.075-8.49V29.979h0V25.147h0V8.207a4.045,4.045,0,0,1,4.045-4.045h2.917c9.509,0,11.546.849,12.225,3.989l1.019,4.584h2.123V0Z" transform="translate(4.506 0)" fill="#8599b4"/>
    <path id="Path_64" data-name="Path 64" d="M11.52,84.54H7.563V95.119H3.937V84.54H0V81.6H11.52Z" transform="translate(0 2.978)" fill="#fff"/>
    <path id="Path_65" data-name="Path 65" d="M19.036,95.12V81.6h3.625V86.6h5.388V81.6h3.625V95.12H28.049V89.535H22.661V95.12Z" transform="translate(0.695 2.978)" fill="#fff"/>
    <path id="Path_66" data-name="Path 66" d="M49.032,89.653H43.645v2.528h6.407V95.12H40.02V81.6H50.051v2.938H43.645v2.194h5.388Z" transform="translate(1.46 2.978)" fill="#fff"/>
    <path id="Path_67" data-name="Path 67" d="M70.209,94.893V81.375h3.625V86.37h5.388V81.375h3.625V94.893H79.221V89.309H73.833v5.585Z" transform="translate(2.562 2.969)" fill="#fff"/>
    <path id="Path_68" data-name="Path 68" d="M99.119,92.036H94.554l-.9,2.861H89.813l4.779-13.617h4.566l4.78,13.617h-3.9Zm-3.6-2.88h2.7L96.943,85h-.137Z" transform="translate(3.277 2.966)" fill="#fff"/>
    <path id="Path_69" data-name="Path 69" d="M116.665,81.147c3.448,0,6.092,1.685,6.054,5.152l-3.468.411a2.458,2.458,0,0,0-2.665-2.624c-2.1,0-2.92,1.646-2.92,4.056,0,2.39.9,4.055,3,4.055,1.705,0,2.586-.92,2.743-2.743l3.35.353c0,3.056-2.331,5.328-6.092,5.328-4.467,0-6.7-2.585-6.7-6.993,0-4.33,2.234-7,6.7-7" transform="translate(4.013 2.961)" fill="#fff"/>
    <path id="Path_70" data-name="Path 70" d="M130.36,94.893V81.375h3.625v5.368l1.313-1.921,2.565-3.447h4.585l-4.643,5.387,5.035,8.131h-4.33l-3.173-5.29-1.353,1.508v3.782Z" transform="translate(4.757 2.969)" fill="#fff"/>
    <path id="Path_71" data-name="Path 71" d="M158.73,89.427h-5.388v2.528h6.407v2.938H149.717V81.374h10.031v2.938h-6.407v2.194h5.388Z" transform="translate(5.463 2.969)" fill="#fff"/>
    <path id="Path_72" data-name="Path 72" d="M167.525,94.893V81.375h6.563c2.92,0,4.956,1.136,4.956,4.349a3.775,3.775,0,0,1-2.606,3.9l2.7,5.075v.2h-4l-2.39-4.82H171.15v4.82Zm6.034-7.758c1.352,0,1.783-.627,1.783-1.411s-.431-1.411-1.783-1.411h-2.41v2.821Z" transform="translate(6.113 2.969)" fill="#fff"/>
    <path id="Path_73" data-name="Path 73" d="M197.445,81.375h5.31V94.893h-3.626V86.057h-.078l-2.37,8.857h-3.6l-2.567-8.857h-.078v8.836h-3.586V81.375h5.369l2.743,9.286Z" transform="translate(6.818 2.969)" fill="#fff"/>
    <path id="Path_74" data-name="Path 74" d="M218.912,92.036h-4.565l-.9,2.861h-3.839l4.779-13.617h4.566l4.78,13.617h-3.9Zm-3.6-2.88h2.7L216.736,85H216.6Z" transform="translate(7.648 2.966)" fill="#fff"/>
    <path id="Path_75" data-name="Path 75" d="M243.536,81.375V94.893h-3.684l-5.681-8.033v8.033h-3.527V81.375h3.7l5.662,7.954V81.375Z" transform="translate(8.416 2.969)" fill="#fff"/>
    <path id="Path_76" data-name="Path 76" d="M44.068,116.468H38.681v5.016H35.056V107.965H45.087V110.9H38.681v2.625h5.388Z" transform="translate(1.279 3.94)" fill="#fff"/>
    <path id="Path_77" data-name="Path 77" d="M58.343,107.738c4.663,0,6.917,3.1,6.917,6.994s-2.253,6.994-6.917,6.994-6.916-3.095-6.916-6.994,2.253-6.994,6.916-6.994m0,11.05c2.155,0,3.233-1.646,3.233-4.056s-1.078-4.055-3.233-4.055-3.232,1.645-3.232,4.055,1.077,4.056,3.232,4.056" transform="translate(1.877 3.931)" fill="#fff"/>
    <path id="Path_78" data-name="Path 78" d="M72.221,116.292v-8.327h3.625v8.268a2.451,2.451,0,1,0,4.9,0v-8.268h3.625v8.327c0,3.6-2.488,5.426-6.074,5.426s-6.074-1.821-6.074-5.426" transform="translate(2.635 3.94)" fill="#fff"/>
    <path id="Path_79" data-name="Path 79" d="M104.962,107.965v13.518h-3.684L95.6,113.45v8.033H92.07V107.965h3.7l5.662,7.954v-7.954Z" transform="translate(3.36 3.94)" fill="#fff"/>
    <path id="Path_80" data-name="Path 80" d="M118.629,107.965c4.526,0,6.288,3.232,6.288,6.739,0,3.526-1.762,6.779-6.288,6.779h-5.878V107.965Zm-.118,10.579c1.842,0,2.724-1.489,2.724-3.821,0-2.351-.882-3.82-2.724-3.82h-2.135v7.641Z" transform="translate(4.114 3.94)" fill="#fff"/>
    <path id="Path_81" data-name="Path 81" d="M139.79,118.627h-4.565l-.9,2.861h-3.839l4.779-13.617h4.566l4.78,13.617h-3.9Zm-3.6-2.88h2.7l-1.274-4.153h-.137Z" transform="translate(4.761 3.936)" fill="#fff"/>
    <path id="Path_82" data-name="Path 82" d="M159.679,110.9h-3.957v10.579H152.1V110.9h-3.938v-2.938h11.521Z" transform="translate(5.406 3.94)" fill="#fff"/>
    <rect id="Rectangle_18" data-name="Rectangle 18" width="3.625" height="13.518" transform="translate(172.728 111.905)" fill="#fff"/>
    <path id="Path_83" data-name="Path 83" d="M183.488,107.738c4.663,0,6.916,3.1,6.916,6.994s-2.253,6.994-6.916,6.994-6.916-3.095-6.916-6.994,2.253-6.994,6.916-6.994m0,11.05c2.155,0,3.233-1.646,3.233-4.056s-1.078-4.055-3.233-4.055-3.232,1.645-3.232,4.055,1.077,4.056,3.232,4.056" transform="translate(6.443 3.931)" fill="#fff"/>
    <path id="Path_84" data-name="Path 84" d="M208.48,107.965v13.518H204.8l-5.681-8.033v8.033h-3.527V107.965h3.7l5.662,7.954v-7.954Z" transform="translate(7.137 3.94)" fill="#fff"/>
  </g>
</svg>
