<svg id="Group_9" data-name="Group 9" xmlns="http://www.w3.org/2000/svg" width="216" height="49.085" viewBox="0 0 216 49.085">
  <path id="Path_36" data-name="Path 36" d="M148.892,0v2.09h2.8V9.617h2.579V2.091h2.815V0Z" transform="translate(-61.068 0)" fill="#fff"/>
  <path id="Path_37" data-name="Path 37" d="M179.1,0V3.554h-3.832V0h-2.578V9.617h2.578V5.644H179.1V9.617h2.578V0Z" transform="translate(-70.828 0)" fill="#fff"/>
  <path id="Path_38" data-name="Path 38" d="M198.917,0V9.617h7.136V7.527H201.5v-1.8h3.832V3.651H201.5V2.091h4.557V0Z" transform="translate(-81.585 0)" fill="#fff"/>
  <path id="Path_39" data-name="Path 39" d="M156.391,36.869h-3.832V33.315h-2.579v9.616h2.579V38.959h3.832v3.973h2.578V33.315h-2.578Z" transform="translate(-61.513 -13.664)" fill="#fff"/>
  <path id="Path_40" data-name="Path 40" d="M177.885,33.195l-3.4,9.687h2.731l.641-2.035H181.1l.655,2.035h2.773l-3.4-9.687Zm.655,5.6.92-2.955h.1l.907,2.955Z" transform="translate(-71.564 -13.615)" fill="#fff"/>
  <path id="Path_41" data-name="Path 41" d="M204.44,40.892c-1.492,0-2.133-1.185-2.133-2.885s.586-2.885,2.077-2.885a1.749,1.749,0,0,1,1.9,1.867l2.467-.293c.028-2.466-1.854-3.665-4.307-3.665-3.178,0-4.767,1.9-4.767,4.976,0,3.136,1.59,4.975,4.767,4.975,2.676,0,4.334-1.616,4.334-3.79l-2.383-.251c-.112,1.3-.738,1.951-1.951,1.951" transform="translate(-81.895 -13.548)" fill="#fff"/>
  <path id="Path_42" data-name="Path 42" d="M233.768,33.315h-3.262l-1.825,2.453-.934,1.366V33.315h-2.579v9.616h2.579v-2.69l.961-1.073,2.257,3.763h3.08l-3.582-5.784Z" transform="translate(-92.352 -13.664)" fill="#fff"/>
  <path id="Path_43" data-name="Path 43" d="M256.5,40.841h-4.557v-1.8h3.832V36.966h-3.832V35.405H256.5v-2.09h-7.136v9.616H256.5Z" transform="translate(-102.276 -13.664)" fill="#fff"/>
  <path id="Path_44" data-name="Path 44" d="M274.2,39.5h1.143l1.7,3.429h2.843v-.14l-1.923-3.61a2.686,2.686,0,0,0,1.853-2.773c0-2.286-1.449-3.094-3.526-3.094h-4.669v9.617H274.2Zm0-4.1h1.714c.961,0,1.268.446,1.268,1s-.307,1-1.268,1H274.2Z" transform="translate(-111.406 -13.664)" fill="#fff"/>
  <path id="Path_45" data-name="Path 45" d="M307.092,42.931V33.315h-3.777l-1.771,6.606-1.951-6.606h-3.819v9.616h2.551V36.645h.055l1.826,6.3h2.564l1.687-6.3h.055v6.286Z" transform="translate(-121.311 -13.664)" fill="#fff"/>
  <path id="Path_46" data-name="Path 46" d="M327.6,40.847h3.247l.655,2.035h2.773l-3.4-9.687h-3.247l-3.4,9.687h2.731Zm1.6-5h.1L330.2,38.8h-1.924Z" transform="translate(-132.98 -13.615)" fill="#fff"/>
  <path id="Path_47" data-name="Path 47" d="M353.033,37.217l4.041,5.715h2.621V33.315h-2.509v5.658l-4.028-5.658h-2.634v9.616h2.509Z" transform="translate(-143.766 -13.664)" fill="#fff"/>
  <path id="Path_48" data-name="Path 48" d="M149.979,76.246h2.579V72.678h3.832v-2.09h-3.832V68.72h4.557V66.63h-7.136Z" transform="translate(-61.513 -27.328)" fill="#fff"/>
  <path id="Path_49" data-name="Path 49" d="M175.363,66.345c-3.317,0-4.92,2.2-4.92,4.976s1.6,4.975,4.92,4.975,4.92-2.2,4.92-4.975-1.6-4.976-4.92-4.976m0,7.861c-1.533,0-2.3-1.171-2.3-2.885s.766-2.885,2.3-2.885,2.3,1.171,2.3,2.885-.767,2.885-2.3,2.885" transform="translate(-69.906 -27.211)" fill="#fff"/>
  <path id="Path_50" data-name="Path 50" d="M202.5,72.511a1.743,1.743,0,1,1-3.484,0V66.63h-2.579v5.923c0,2.565,1.771,3.86,4.321,3.86s4.321-1.3,4.321-3.86V66.63H202.5Z" transform="translate(-80.567 -27.328)" fill="#fff"/>
  <path id="Path_51" data-name="Path 51" d="M227.909,72.288l-4.028-5.658h-2.634v9.616h2.509V70.531l4.041,5.715h2.621V66.63h-2.509Z" transform="translate(-90.743 -27.328)" fill="#fff"/>
  <path id="Path_52" data-name="Path 52" d="M251.278,66.63H247.1v9.616h4.181c3.22,0,4.473-2.313,4.473-4.823s-1.253-4.794-4.473-4.794m-.084,7.526h-1.519V68.72h1.519c1.31,0,1.938,1.046,1.938,2.718s-.628,2.718-1.938,2.718" transform="translate(-101.346 -27.328)" fill="#fff"/>
  <path id="Path_53" data-name="Path 53" d="M272.665,66.51l-3.4,9.687H272l.641-2.035h3.248l.655,2.035h2.773l-3.4-9.687Zm.655,5.6.92-2.955h.1l.907,2.955Z" transform="translate(-110.438 -27.279)" fill="#fff"/>
  <path id="Path_54" data-name="Path 54" d="M291.358,68.72h2.8v7.526h2.578V68.72h2.815v-2.09h-8.195Z" transform="translate(-119.499 -27.328)" fill="#fff"/>
  <rect id="Rectangle_17" data-name="Rectangle 17" width="2.579" height="9.616" transform="translate(185.49 39.302)" fill="#fff"/>
  <path id="Path_55" data-name="Path 55" d="M331.793,66.345c-3.317,0-4.92,2.2-4.92,4.976s1.6,4.975,4.92,4.975,4.92-2.2,4.92-4.975-1.6-4.976-4.92-4.976m0,7.861c-1.533,0-2.3-1.171-2.3-2.885s.766-2.885,2.3-2.885,2.3,1.171,2.3,2.885-.767,2.885-2.3,2.885" transform="translate(-134.066 -27.211)" fill="#fff"/>
  <path id="Path_56" data-name="Path 56" d="M357.306,66.63v5.658l-4.028-5.658h-2.634v9.616h2.509V70.531l4.041,5.715h2.621V66.63Z" transform="translate(-143.815 -27.328)" fill="#fff"/>
  <path id="Path_57" data-name="Path 57" d="M103.819,30.181c-.724,2.536-1.739,2.559-8.4,2.559H93.783v4.124h1.632c6.665,0,7.607-.088,8.331,2.447l.869,3.042h1.449V27.5h-1.449Z" transform="translate(-38.465 -11.279)" fill="#fff"/>
  <path id="Path_58" data-name="Path 58" d="M33.111,1.449l2.1.58c2.9.8,3.478,1.449,3.478,7.318V21.461H22.761c-2.883,0-5.086-1.715-5.086-4.985V9.357c0-5.868.577-6.52,3.478-7.318l2.1-.577V.011H0v1.45l2.1.577c2.9.8,3.475,1.45,3.475,7.318V39.563c0,5.868-.578,6.519-3.475,7.315L0,47.459v1.447H23.251V47.459l-2.1-.581c-2.9-.8-3.478-1.447-3.478-7.315V30.587c0-3.271,2.2-4.985,5.086-4.985l15.93-.014V39.562c0,5.868-.58,6.52-3.478,7.317l-2.1.579v1.449H57.819V47.457l-3.55-.651c-2.971-.58-3.478-1.377-3.478-7.245V25.584h0V21.461h0V7a3.452,3.452,0,0,1,3.452-3.452h2.489c8.115,0,9.854.725,10.434,3.4l.869,3.913h1.811V0H33.111Z" fill="#fff"/>
</svg>
