<svg xmlns="http://www.w3.org/2000/svg" width="10" height="14" viewBox="0 0 10 14">
  <path id="Path_33" data-name="Path 33" d="M-3.458,0H-6.792a.177.177,0,0,1-.15-.081A.354.354,0,0,1-7-.292V-13.708a.354.354,0,0,1,.058-.211A.177.177,0,0,1-6.792-14h3.333a.177.177,0,0,1,.15.081.354.354,0,0,1,.058.211V-.292a.354.354,0,0,1-.058.211A.177.177,0,0,1-3.458,0Zm6.25,0H-.542a.177.177,0,0,1-.15-.081A.354.354,0,0,1-.75-.292V-13.708a.354.354,0,0,1,.058-.211A.177.177,0,0,1-.542-14H2.792a.177.177,0,0,1,.15.081A.354.354,0,0,1,3-13.708V-.292a.354.354,0,0,1-.058.211A.177.177,0,0,1,2.792,0Z" transform="translate(7 14)" fill="#2c2c2c" opacity="0.231"/>
</svg>
