<svg id="Group_4" data-name="Group 4" xmlns="http://www.w3.org/2000/svg" width="40" height="40" viewBox="0 0 40 40">
  <circle id="Ellipse_1" data-name="Ellipse 1" cx="20" cy="20" r="20" fill="#638cb4"/>
  <path id="Path_29" data-name="Path 29" d="M9.343-15.565l7.991,7.991a.461.461,0,0,1,.1.262.461.461,0,0,1-.1.262L9.343.942a.366.366,0,0,1-.4.081A.35.35,0,0,1,8.718.68V-4.042H.363a.355.355,0,0,1-.262-.1A.355.355,0,0,1,0-4.406v-5.812a.355.355,0,0,1,.1-.262.355.355,0,0,1,.262-.1H8.718V-15.3a.35.35,0,0,1,.222-.343A.366.366,0,0,1,9.343-15.565Z" transform="translate(12.003 27.186)" fill="#fff"/>
</svg>
