<svg xmlns="http://www.w3.org/2000/svg" width="21" height="21" viewBox="0 0 21 21">
  <path id="Path_60" data-name="Path 60" d="M21-10.5a10.338,10.338,0,0,1-1.02,4.527,10.4,10.4,0,0,1-2.81,3.594A10.435,10.435,0,0,1,13.125-.328V-8.316h2.246l.379-2.625H13.125v-2.307a1.034,1.034,0,0,1,1.148-1.189h1.671v-2.44a8.776,8.776,0,0,0-1.887-.174,3.907,3.907,0,0,0-2.82.938,3.372,3.372,0,0,0-.974,2.548v2.625H7.875v2.625h2.389V0a10.154,10.154,0,0,1-4-.892A10.624,10.624,0,0,1,2.994-3.143,10.512,10.512,0,0,1,.81-6.465,10.288,10.288,0,0,1,0-10.5a10.264,10.264,0,0,1,.831-4.076,10.547,10.547,0,0,1,2.24-3.353,10.547,10.547,0,0,1,3.353-2.24A10.264,10.264,0,0,1,10.5-21a10.264,10.264,0,0,1,4.076.831,10.547,10.547,0,0,1,3.353,2.24,10.547,10.547,0,0,1,2.24,3.353A10.264,10.264,0,0,1,21-10.5Z" transform="translate(0 21)" fill="#ffe47a"/>
</svg>
