<svg xmlns="http://www.w3.org/2000/svg" width="21" height="21" viewBox="0 0 21 21">
  <path id="Path_59" data-name="Path 59" d="M8.952-12.038A2.1,2.1,0,0,0,8.316-10.5a2.1,2.1,0,0,0,.641,1.543,2.1,2.1,0,0,0,1.543.641,2.1,2.1,0,0,0,1.543-.641,2.1,2.1,0,0,0,.641-1.543,2.1,2.1,0,0,0-.641-1.543,2.1,2.1,0,0,0-1.543-.641A2.112,2.112,0,0,0,8.952-12.038Zm6.357-2.84a.414.414,0,0,0-.128-.3.414.414,0,0,0-.3-.128H13.566a.426.426,0,0,0-.313.128.414.414,0,0,0-.128.3v1.313a.426.426,0,0,0,.128.313.426.426,0,0,0,.313.128h1.313a.414.414,0,0,0,.3-.128.426.426,0,0,0,.128-.313Zm-1.415,3.507a3.5,3.5,0,0,1,.1.872,3.377,3.377,0,0,1-1.02,2.471A3.363,3.363,0,0,1,10.5-7,3.363,3.363,0,0,1,8.024-8.029,3.377,3.377,0,0,1,7-10.5a3.5,3.5,0,0,1,.1-.872H5.691v5.25a.414.414,0,0,0,.128.3.414.414,0,0,0,.3.128h8.757a.414.414,0,0,0,.3-.128.414.414,0,0,0,.128-.3v-5.25Zm-7.475-8.8A10.3,10.3,0,0,1,10.5-21a10.264,10.264,0,0,1,4.076.831,10.547,10.547,0,0,1,3.353,2.24,10.547,10.547,0,0,1,2.24,3.353A10.264,10.264,0,0,1,21-10.5a10.264,10.264,0,0,1-.831,4.076,10.547,10.547,0,0,1-2.24,3.353,10.547,10.547,0,0,1-3.353,2.24A10.264,10.264,0,0,1,10.5,0,10.264,10.264,0,0,1,6.424-.831a10.547,10.547,0,0,1-3.353-2.24A10.547,10.547,0,0,1,.831-6.424,10.264,10.264,0,0,1,0-10.5a10.264,10.264,0,0,1,.831-4.076,10.547,10.547,0,0,1,2.24-3.353A10.562,10.562,0,0,1,6.419-20.169Zm10.2,14.048v-8.757a1.682,1.682,0,0,0-.508-1.236,1.682,1.682,0,0,0-1.236-.508H6.122a1.682,1.682,0,0,0-1.236.508,1.682,1.682,0,0,0-.508,1.236v8.757a1.682,1.682,0,0,0,.508,1.236,1.682,1.682,0,0,0,1.236.508h8.757a1.682,1.682,0,0,0,1.236-.508A1.682,1.682,0,0,0,16.622-6.122Z" transform="translate(0 21)" fill="#ffe47a"/>
</svg>
